# xmcd CD database file
#
# Track frame offsets:
#	150
#	11866
#	23481
#	32937
#	40302
#	51022
#	62996
#	72802
#	85375
#	99168
#	111340
#	123653
#	132614
#	145056
#	157278
#	168489
#	179374
#	194027
#
# Disc length: 2758 seconds
#
# Revision: 0
# Processed by: cddbd v1.5.2PL0 Copyright (c) Steve Scherf et al.
# Submitted via: CDex 1.51
#
DISCID=0e0ac412
DTITLE=Dolly Parton and Kitty Wells - Back to back
DYEAR=2001
DGENRE=Country
TTITLE0=Making Believe
TTITLE1=Letter to Heaven
TTITLE2=Girl Left Alone
TTITLE3=Puppy Love
TTITLE4=(It Wasn't God Who Made) Honky Tonk Angels
TTITLE5=Two Little Orphans
TTITLE6=Release Me
TTITLE7=Little Blossom
TTITLE8=I Don't Claim To Be An Angel
TTITLE9=Lonely Side Of Town
TTITLE10=From Left To Right
TTITLE11=I'll Repossess My Heart
TTITLE12=As Long As I Live
TTITLE13=Password
TTITLE14=Mummy For A Day
TTITLE15=Searching (For Someone Like You)
TTITLE16=One By One
TTITLE17=This White Circle On My Finger
EXTD=YEAR: 2001
EXTT0=
EXTT1=
EXTT2=
EXTT3=
EXTT4=
EXTT5=
EXTT6=
EXTT7=
EXTT8=
EXTT9=
EXTT10=
EXTT11=
EXTT12=
EXTT13=
EXTT14=
EXTT15=
EXTT16=
EXTT17=
PLAYORDER=
